<?xml version="1.0" encoding="utf-8"?>
<!-- Generator: Adobe Illustrator 28.0.0, SVG Export Plug-In . SVG Version: 6.00 Build 0)  -->
<svg version="1.1" id="Layer_1" xmlns="http://www.w3.org/2000/svg" xmlns:xlink="http://www.w3.org/1999/xlink" x="0px" y="0px"
	 viewBox="0 0 1095 369" style="enable-background:new 0 0 1095 369;" xml:space="preserve">
<style type="text/css">
	.st0{fill:#252422;}
	.st1{fill:#AE0C06;}
	.st2{fill:#FFF9EF;}
	.st3{fill:#C9C2B6;}
	.st4{fill:#01295F;}
	.st5{fill:#FFFFFF;}
</style>
<g>
	<path d="M479.4,331.49c19.4-4.28,22.08-17.02,21.95-33.87c-0.59-75.28-0.24-150.57-0.26-225.86c-0.01-24.32-1.41-26.16-25.92-32.53
		c4.9-1.27,7.69-2.58,10.49-2.62c28.57-0.38,57.16-1.22,85.72-0.65c59.65,1.19,102.17,34.95,116.38,92.96
		c9.33,38.1,8.17,76.31-4.53,113.7c-18.64,54.9-60.21,86.46-118.15,88.68C536.55,332.39,507.96,331.49,479.4,331.49z M544.06,325.57
		c42.22,3.04,66.24-11.2,83.36-47.32c13.96-29.47,18.73-60.81,18.14-92.84c-0.67-36.96-5.02-73.5-25.12-105.96
		c-18-29.07-45.94-41.96-76.38-35.67C544.06,137.34,544.06,230.96,544.06,325.57z"/>
	<path d="M287.02,78.46c-0.17,3.54-0.49,7.07-0.48,10.61c0.11,62.71,0.22,125.41,0.47,188.12c0.02,6.02,0.91,12.04,1.37,18.07
		c1.32,17.34,8.16,30.49,26.52,35.82c-20.3,0-40.6,0-66.57,0c27.15-8.7,30.96-27.48,31.12-46.89c0.55-67.65,0.31-135.31,0.19-202.97
		c-0.04-21.66-11.92-34.59-31.84-43.27c22.05,0,44.13-0.64,66.11,0.62c3.71,0.21,7.8,8.19,10.27,13.29
		c32.36,66.71,64.45,133.56,96.65,200.35c2.49,5.16,5.28,10.17,10.08,19.37c0.55-8.79,1.03-12.88,1.03-16.97
		c0.04-56.66,0.19-113.31-0.08-169.97c-0.12-26.06-8.17-37.46-34.67-46.4c25.7,0,46.81,0,67.92,0c-18.77,4.96-23.84,19.4-25.19,35.9
		c-1.07,13.12-1.29,26.34-1.31,39.52c-0.12,66.56-0.06,133.11-0.06,199.67c0,5.95,0,11.89,0,17.69c-15.57,4.99-24,1.77-30.99-12.92
		c-36.09-75.88-73.41-151.18-110.34-226.67c-2.28-4.67-4.86-9.19-7.3-13.78C288.97,77.94,287.99,78.2,287.02,78.46z"/>
	<path d="M900.62,37.84c30.87,0,61.75,0,93.04,0c-8.74,5.22-20.15,8.25-24.17,15.43c-4.6,8.2-3.35,20.08-3.38,30.36
		c-0.22,74.76-0.12,149.52-0.12,224.28c0,5.99,0,11.98,0,20.53c15.68,0.28,32.22-3.06,41.82-4.17c27.02-3.15,32.22-9.27,35.81-11.55
		c2.42-1.54,8.41-5.16,15.02-13.86c5-6.58,14.35-31.35,14.58-35.46c1.59,1,3.17,2.01,4.76,3.01c-7.93,31.91-7.76,32.63-15.72,64.67
		c-54.36,0-107.32,0-160.29,0c20.6-5.78,22.05-20.96,21.9-38.8c-0.59-73.11-0.66-146.23,0.05-219.33
		C924.09,54.96,920.76,41.88,900.62,37.84z"/>
	<path d="M802.02,331.56h87.62c-19.15-3.99-22.04-19.69-25.74-34.06c-21.03-81.84-41.65-163.77-62.79-245.59
		c-1.31-5.04-5.28-12.74-8.84-13.24c-7.44-1.03-15.03-1.03-22.48-0.88l-38.05-0.05c0,0,14.01,4.64,23.37,16.98
		c0.07,0.1,0.14,0.18,0.2,0.28c1.24,1.65,2.38,3.43,3.4,5.36c0.01,0.02,0.02,0.03,0.03,0.06c0.91,1.7,1.67,3.38,2.19,5.01
		c0.15,0.4,0.29,0.81,0.42,1.22l-2.11-11.7c0.87,4.2,1.7,8.29,2.28,12.23c0.49,1.54,0.88,3.14,1.17,4.83
		c-0.22,0.38-0.4,0.54-0.54,0.46c0.33,4.47,0.18,8.73-0.83,12.79c-16.99,67.55-36.37,134.5-55.3,201.56
		c-5.07,18.01-9.73,36.79-35.18,45.35h68.56c-28.62-12.84-31.77-19.41-24.82-49.97c2.07-9.09,4.37-18.14,6.98-27.09
		c4.57-15.67,4.93-37.31,15.48-45.19c10.73-8.02,31.65-1.94,48.03-3.05c9.68-0.65,13.56,3.2,15.61,12.17
		c5.01,21.92,11.12,43.61,16.16,65.52c2.32,10.06,6.41,21.43,3.71,30.4C818.29,322.39,807.27,327.17,802.02,331.56z M736.07,199.85
		c9.86-36.04,19.67-71.89,29.49-107.74c1.18-0.2,2.37-0.38,3.55-0.58c8.85,35.45,17.7,70.9,27.04,108.31H736.07z"/>
	<path d="M148.22,331.56h87.62c-19.15-3.99-22.04-19.69-25.74-34.06c-21.03-81.84-41.65-163.77-62.79-245.59
		c-1.31-5.04-5.28-12.74-8.84-13.24c-7.44-1.03-15.03-1.03-22.48-0.88l-38.05-0.05c0,0,14.01,4.64,23.37,16.98
		c0.07,0.1,0.14,0.18,0.2,0.28c1.24,1.65,2.38,3.43,3.4,5.36c0.01,0.02,0.02,0.03,0.03,0.06c0.91,1.7,1.67,3.38,2.19,5.01
		c0.15,0.4,0.29,0.81,0.42,1.22l-2.11-11.7c0.87,4.2,1.7,8.29,2.28,12.23c0.49,1.54,0.88,3.14,1.17,4.83
		c-0.22,0.38-0.4,0.54-0.54,0.46c0.33,4.47,0.18,8.73-0.83,12.79c-16.99,67.55-36.37,134.5-55.3,201.56
		c-5.07,18.01-9.73,36.79-35.18,45.35h68.56c-28.62-12.84-31.77-19.41-24.82-49.97c2.07-9.09,4.37-18.14,6.98-27.09
		c4.57-15.67,4.93-37.31,15.48-45.19c10.73-8.02,31.65-1.94,48.03-3.05c9.68-0.65,13.56,3.2,15.61,12.17
		c5.01,21.92,11.12,43.61,16.16,65.52c2.32,10.06,6.41,21.43,3.71,30.4C164.5,322.39,153.48,327.17,148.22,331.56z M82.28,199.85
		c9.86-36.04,19.67-71.89,29.49-107.74c1.18-0.2,2.37-0.38,3.55-0.58c8.85,35.45,17.7,70.9,27.04,108.31H82.28z"/>
</g>
</svg>
